<svg xmlns="http://www.w3.org/2000/svg" viewBox="0 0 500 500"><g id="freepik--background-simple--inject-16"><path d="M464.15,138.49S389.06,48.67,272.75,28.06s-139.14,67-178.16,118.52-83.18,70.68-85.39,145,28,112.63,86.13,139.13,117.79,40.49,175.94,48.59S375.81,483,398.63,435.16s12.51-69.93,39-92.76S523.78,215.78,464.15,138.49Z" style="fill:#38B6FF"></path><path d="M464.15,138.49S389.06,48.67,272.75,28.06s-139.14,67-178.16,118.52-83.18,70.68-85.39,145,28,112.63,86.13,139.13,117.79,40.49,175.94,48.59S375.81,483,398.63,435.16s12.51-69.93,39-92.76S523.78,215.78,464.15,138.49Z" style="fill:#fff;opacity:0.7000000000000001"></path></g><g id="freepik--Clouds--inject-16"><path d="M298.07,267.74s-1.44-7.44-7.93-10.09-10.57.72-11.53,3.13-1.2,6.48-4.8,4.8-5-3.6-9.6-1.68-3.13,6-6.49,6.72-2.16-1.2-5.76-.72-3.36,2.64-4.33,3.84-1,.24-4.32.72a10.57,10.57,0,0,0-5.52,2.65H312s1.92-3.85-3.13-6.73S299.51,270.62,298.07,267.74Z" style="fill:#fff;stroke:#adadad;stroke-linecap:round;stroke-linejoin:round"></path><path d="M223.72,29.49S222.28,22,215.79,19.4s-10.57.72-11.53,3.12-1.2,6.49-4.8,4.8-5-3.6-9.61-1.68-3.12,6-6.48,6.73-2.16-1.2-5.76-.72-3.37,2.64-4.33,3.84-1,.24-4.32.72a10.6,10.6,0,0,0-5.52,2.64h74.2s1.93-3.84-3.12-6.72S225.16,32.37,223.72,29.49Z" style="fill:#fff;stroke:#adadad;stroke-linecap:round;stroke-linejoin:round"></path><path d="M416.82,146.79s-2.67-13.77-14.66-18.65-19.54,1.33-21.32,5.77-2.22,12-8.88,8.88-9.32-6.66-17.76-3.11-5.78,11.11-12,12.44-4-2.22-10.66-1.33-6.22,4.88-8,7.1-1.77.45-8,1.33a19.58,19.58,0,0,0-10.21,4.89H442.57s3.56-7.11-5.77-12.44S419.48,152.12,416.82,146.79Z" style="fill:#fff;stroke:#adadad;stroke-linecap:round;stroke-linejoin:round"></path><path d="M134.2,224.1s-1.44-7.44-7.93-10.08-10.56.72-11.52,3.12-1.2,6.48-4.81,4.8-5-3.6-9.6-1.68-3.13,6-6.49,6.73-2.16-1.2-5.76-.72-3.36,2.64-4.32,3.84-1,.24-4.33.72a10.6,10.6,0,0,0-5.52,2.64h74.21s1.92-3.84-3.12-6.72S135.64,227,134.2,224.1Z" style="fill:#fff;stroke:#adadad;stroke-linecap:round;stroke-linejoin:round"></path></g><g id="freepik--supply-4--inject-16"><rect x="323.39" y="104.95" width="27.26" height="26.8" style="fill:#757575;stroke:#263238;stroke-linecap:round;stroke-linejoin:round"></rect><rect x="350.65" y="104.95" width="11.38" height="26.8" transform="translate(712.69 236.7) rotate(180)" style="fill:#c2c2c2;stroke:#263238;stroke-linecap:round;stroke-linejoin:round"></rect><polyline points="342.58 91.38 342.58 97.58 323.39 104.95" style="fill:none;stroke:#263238;stroke-linecap:round;stroke-linejoin:round"></polyline><polyline points="342.58 97.58 356.91 104.83 356.91 131.55" style="fill:none;stroke:#263238;stroke-linecap:round;stroke-linejoin:round"></polyline><path d="M368.53,69.16c-2.37,4.22-6.51,7.64-10,10.68-4.88,4.23-10.79,6.88-14,13.29a1.79,1.79,0,0,1-3.21-.06c-5.82-11.95-25.06-14-26.47-29.53-.55-6,3-12.55,7-16.83,3.66-3.94,12.37-8.94,16.71-3.6,1.55,1.9,2.46,3,4.44,5.26,2-2.28,2.89-3.36,4.44-5.26,4.56-5.62,12.19-.06,15.79,3.78,4.11,4.4,7.86,10.35,7.22,16.64A14.52,14.52,0,0,1,368.53,69.16Z" style="fill:#38B6FF;stroke:#263238;stroke-linecap:round;stroke-linejoin:round"></path><path d="M362.2,47.84c2,2.37,2.67,5.17,1.41,6.26s-3.93,0-6-2.33-2.68-5.17-1.42-6.25S360.16,45.48,362.2,47.84Z" style="fill:#fff"></path><path d="M364.11,49.82c3.6,4.19,3.51,10.18-.22,13.39s-9.66,2.41-13.27-1.78-3.5-10.18.22-13.39S360.51,45.63,364.11,49.82Z" style="fill:#fff;opacity:0.49"></path><path d="M337.18,43.67c1.32,1.53,1.6,3.45.63,4.28s-2.82.27-4.14-1.26-1.6-3.45-.63-4.28S335.86,42.14,337.18,43.67Z" style="fill:#fff"></path><path d="M331.94,80.63C325.29,76.1,318,72,317.21,63c-.45-4.91,2-10.21,5.16-14.12" style="fill:#38B6FF;stroke:#263238;stroke-linecap:round;stroke-linejoin:round"></path><path d="M335.89,83.51c-.63-.51-1.28-1-1.95-1.48" style="fill:#38B6FF;stroke:#263238;stroke-linecap:round;stroke-linejoin:round"></path><path d="M345.59,48.92s4.42-6,7.78-6" style="fill:#38B6FF;stroke:#263238;stroke-linecap:round;stroke-linejoin:round"></path><path d="M324.36,46.8s3.53-3,5.66-3" style="fill:#38B6FF;stroke:#263238;stroke-linecap:round;stroke-linejoin:round"></path><polygon points="343.11 115.8 338.6 115.8 338.6 111.29 334 111.29 334 115.8 329.49 115.8 329.49 120.4 334 120.4 334 124.91 338.6 124.91 338.6 120.4 343.11 120.4 343.11 115.8" style="fill:#fff;stroke:#263238;stroke-linecap:round;stroke-linejoin:round"></polygon></g><g id="freepik--supply-3--inject-16"><rect x="289.79" y="264.91" width="38.97" height="38.31" transform="translate(618.56 568.12) rotate(180)" style="fill:#c2c2c2;stroke:#263238;stroke-linecap:round;stroke-linejoin:round"></rect><path d="M320.2,286.91a10.79,10.79,0,1,1-21.58,0c0-6,10.79-18,10.79-18S320.2,281,320.2,286.91Z" style="fill:#fff;stroke:#263238;stroke-linecap:round;stroke-linejoin:round"></path><rect x="273.52" y="264.91" width="16.27" height="38.31" style="fill:#757575;stroke:#263238;stroke-linecap:round;stroke-linejoin:round"></rect><polyline points="301.34 245.51 301.34 254.37 328.77 264.91" style="fill:none;stroke:#263238;stroke-linecap:round;stroke-linejoin:round"></polyline><polyline points="301.34 254.37 280.85 264.74 280.85 302.93" style="fill:none;stroke:#263238;stroke-linecap:round;stroke-linejoin:round"></polyline><path d="M338.05,213.75c-3.39,6-9.3,10.92-14.3,15.25-7,6.05-15.41,9.84-20,19a2.56,2.56,0,0,1-4.59-.08c-8.32-17.1-35.82-20.07-37.84-42.22-.78-8.58,4.25-18,9.94-24.07,5.23-5.63,17.68-12.77,23.89-5.14,2.21,2.72,3.52,4.26,6.34,7.53,2.82-3.27,4.13-4.81,6.34-7.53,6.53-8,17.43-.09,22.57,5.41,5.89,6.28,11.25,14.8,10.33,23.78A20.8,20.8,0,0,1,338.05,213.75Z" style="fill:#38B6FF;stroke:#263238;stroke-linecap:round;stroke-linejoin:round"></path><path d="M329,183.27c2.91,3.39,3.82,7.39,2,8.94s-5.62.06-8.54-3.33-3.82-7.39-2-8.94S326.08,179.88,329,183.27Z" style="fill:#fff"></path><ellipse cx="322.09" cy="194.39" rx="12.72" ry="14.3" transform="translate(-48.84 257.18) rotate(-40.72)" style="fill:#fff;opacity:0.49"></ellipse><path d="M293.24,177.31c1.88,2.18,2.29,4.92.9,6.12s-4,.38-5.92-1.81-2.29-4.93-.9-6.12S291.35,175.12,293.24,177.31Z" style="fill:#fff"></path><path d="M285.74,230.14c-9.51-6.47-19.88-12.37-21.05-25.19-.64-7,2.91-14.6,7.37-20.18" style="fill:#38B6FF;stroke:#263238;stroke-linecap:round;stroke-linejoin:round"></path><path d="M291.4,234.26c-.91-.73-1.84-1.43-2.79-2.12" style="fill:#38B6FF;stroke:#263238;stroke-linecap:round;stroke-linejoin:round"></path><path d="M305.25,184.81s6.33-8.6,11.13-8.6" style="fill:#38B6FF;stroke:#263238;stroke-linecap:round;stroke-linejoin:round"></path><path d="M274.9,181.78s5.06-4.3,8.1-4.3" style="fill:#38B6FF;stroke:#263238;stroke-linecap:round;stroke-linejoin:round"></path></g><g id="freepik--supply-1--inject-16"><rect x="149.18" y="142.87" width="26.48" height="26.03" transform="translate(324.85 311.77) rotate(180)" style="fill:#c2c2c2;stroke:#263238;stroke-linecap:round;stroke-linejoin:round"></rect><path d="M170.11,156.1l-7.78,7.79-7.78-7.79a4.8,4.8,0,1,1,6.79-6.78l1,1,1-1a4.79,4.79,0,1,1,6.78,6.78Z" style="fill:#fff;stroke:#263238;stroke-linecap:round;stroke-linejoin:round"></path><rect x="138.13" y="142.87" width="11.06" height="26.03" style="fill:#757575;stroke:#263238;stroke-linecap:round;stroke-linejoin:round"></rect><polyline points="157.03 129.69 157.03 135.71 175.66 142.87" style="fill:none;stroke:#263238;stroke-linecap:round;stroke-linejoin:round"></polyline><polyline points="157.03 135.71 143.11 142.75 143.11 168.7" style="fill:none;stroke:#263238;stroke-linecap:round;stroke-linejoin:round"></polyline><path d="M182,108.11c-2.3,4.1-6.32,7.42-9.71,10.37-4.74,4.11-10.48,6.68-13.61,12.91a1.73,1.73,0,0,1-3.12-.06c-5.65-11.61-24.34-13.63-25.71-28.68-.53-5.83,2.89-12.2,6.75-16.35,3.56-3.83,12-8.68,16.24-3.5,1.5,1.85,2.39,2.9,4.31,5.12,1.92-2.22,2.8-3.27,4.3-5.12,4.44-5.45,11.85,0,15.34,3.68,4,4.27,7.64,10,7,16.16A14.09,14.09,0,0,1,182,108.11Z" style="fill:#38B6FF;stroke:#263238;stroke-linecap:round;stroke-linejoin:round"></path><path d="M175.82,87.4c2,2.31,2.6,5,1.37,6.08s-3.82,0-5.8-2.26-2.59-5-1.37-6.08S173.84,85.1,175.82,87.4Z" style="fill:#fff"></path><path d="M177.68,89.32c3.5,4.07,3.4,9.89-.21,13s-9.39,2.35-12.89-1.72-3.41-9.89.21-13S174.18,85.26,177.68,89.32Z" style="fill:#fff;opacity:0.49"></path><path d="M151.52,83.35c1.28,1.49,1.56,3.35.62,4.16s-2.75.26-4-1.23-1.55-3.35-.61-4.16S150.24,81.86,151.52,83.35Z" style="fill:#fff"></path><path d="M146.43,119.25c-6.46-4.4-13.51-8.4-14.3-17.11-.44-4.77,2-9.93,5-13.72" style="fill:#38B6FF;stroke:#263238;stroke-linecap:round;stroke-linejoin:round"></path><path d="M150.27,122.05c-.61-.5-1.25-1-1.89-1.44" style="fill:#38B6FF;stroke:#263238;stroke-linecap:round;stroke-linejoin:round"></path><path d="M159.69,88.45s4.29-5.84,7.56-5.84" style="fill:#38B6FF;stroke:#263238;stroke-linecap:round;stroke-linejoin:round"></path><path d="M139.06,86.39s3.44-2.92,5.5-2.92" style="fill:#38B6FF;stroke:#263238;stroke-linecap:round;stroke-linejoin:round"></path></g><g id="freepik--supply-2--inject-16"><rect x="199.32" y="187" width="54.62" height="53.69" style="fill:#757575;stroke:#263238;stroke-linecap:round;stroke-linejoin:round"></rect><rect x="253.94" y="187" width="22.8" height="53.69" transform="translate(530.69 427.69) rotate(180)" style="fill:#c2c2c2;stroke:#263238;stroke-linecap:round;stroke-linejoin:round"></rect><polyline points="237.77 159.82 237.77 172.23 199.32 187" style="fill:none;stroke:#263238;stroke-linecap:round;stroke-linejoin:round"></polyline><polyline points="237.77 172.23 266.48 186.76 266.48 240.28" style="fill:none;stroke:#263238;stroke-linecap:round;stroke-linejoin:round"></polyline><path d="M289.76,115.3c-4.75,8.45-13,15.3-20,21.38-9.77,8.48-21.61,13.79-28.06,26.64a3.58,3.58,0,0,1-6.43-.12c-11.66-23.95-50.21-28.11-53-59.16-1.09-12,6-25.16,13.93-33.73,7.34-7.89,24.78-17.9,33.48-7.21,3.11,3.81,4.93,6,8.89,10.55,4-4.57,5.78-6.74,8.89-10.55,9.14-11.25,24.43-.12,31.63,7.58,8.26,8.81,15.76,20.74,14.47,33.33A29.07,29.07,0,0,1,289.76,115.3Z" style="fill:#38B6FF;stroke:#263238;stroke-linecap:round;stroke-linejoin:round"></path><path d="M277.07,72.59c4.09,4.75,5.36,10.36,2.83,12.53s-7.88.08-12-4.67-5.36-10.36-2.84-12.53S273,67.84,277.07,72.59Z" style="fill:#fff"></path><ellipse cx="267.39" cy="88.18" rx="17.83" ry="20.04" transform="translate(7.21 195.78) rotate(-40.72)" style="fill:#fff;opacity:0.49"></ellipse><path d="M227,64.23c2.64,3.07,3.21,6.91,1.27,8.58s-5.66.54-8.3-2.53-3.2-6.91-1.26-8.58S224.31,61.16,227,64.23Z" style="fill:#fff"></path><path d="M216.45,138.27c-13.33-9.07-27.87-17.33-29.51-35.29-.89-9.84,4.08-20.47,10.34-28.29" style="fill:#38B6FF;stroke:#263238;stroke-linecap:round;stroke-linejoin:round"></path><path d="M224.37,144c-1.26-1-2.57-2-3.9-3" style="fill:#38B6FF;stroke:#263238;stroke-linecap:round;stroke-linejoin:round"></path><path d="M243.79,74.75s8.86-12,15.6-12" style="fill:#38B6FF;stroke:#263238;stroke-linecap:round;stroke-linejoin:round"></path><path d="M201.26,70.49s7.09-6,11.34-6" style="fill:#38B6FF;stroke:#263238;stroke-linecap:round;stroke-linejoin:round"></path><polygon points="238.83 208.74 229.79 208.74 229.79 199.7 220.57 199.7 220.57 208.74 211.54 208.74 211.54 217.95 220.57 217.95 220.57 226.99 229.79 226.99 229.79 217.95 238.83 217.95 238.83 208.74" style="fill:#fff;stroke:#263238;stroke-linecap:round;stroke-linejoin:round"></polygon></g><g id="freepik--character-2--inject-16"><path d="M363.73,341s.85-8.22.29-10.34-2.13-3.4-2.55-5.95-1.28-3.68-2.41-1.84-.14,5.24-.14,5.24-6.65-5.66-7.93-7.36-3.11-.57-2.83.71,5.66,6.79,5.66,6.79l-1.27.29s-4.82-5-6.23-6.09-3-.85-3.26.42,6.94,7.93,6.94,7.93-5.1-2.83-6.66-3.82-2.12-1.13-2.26.42,1.27,3,3.26,3.83,4.24,1.7,4.24,1.7-4.81-.57-6.37-.85-.85,1.55.85,2.4a40.32,40.32,0,0,0,5.24,1.84,33.22,33.22,0,0,0,3.4,4.25,27,27,0,0,0,5.24,3.54s13.73,31.16,15,33.42,10.05,2.83,12.18,2.69,7.78-11.47,7.78-11.47L394,358.31a27.53,27.53,0,0,1-4.67,1.84C386.53,361,379,364.4,379,364.4s-8.64-11.47-12.18-16.85S363.73,341,363.73,341Z" style="fill:#fff;stroke:#263238;stroke-linecap:round;stroke-linejoin:round"></path><path d="M358.92,328.15l.14,2.83s-2.69,1.14-2,7.51" style="fill:#e3e3e3;stroke:#263238;stroke-linecap:round;stroke-linejoin:round"></path><path d="M431.68,320.82s9.37-.83,11.84,8,.83,21.2-1.65,25.6-1.37,9.64-.27,10.19,3.58-.83,2.47,1.1-2.75,4.41-10.18,1.38-11-9.64-8.81-18.45,3.3-12.11,4.13-18.17A37,37,0,0,1,431.68,320.82Z" style="fill:#263238;stroke:#263238;stroke-linecap:round;stroke-linejoin:round"></path><path d="M402.5,302.37s-3.31-3,3.85-4.68,14.87,2.48,19.28,9.91,8.26,13.22,6.05,22.86S419,345.05,419,345.05s.55,2.2-3.31,3-8,.83-8.53-4.13.55-9.09,0-9.91-5.78-3.31-6.06-6.89-.28-4.4-1.1-6.88,0-12.39,0-12.39Z" style="fill:#263238;stroke:#263238;stroke-linecap:round;stroke-linejoin:round"></path><path d="M402.5,302.37s-11.84,8-12.39,11.57.27,4.68-1.38,6.61-7.71,3-7.43,5.5a7.94,7.94,0,0,0,2.47,4.41s.28,13.49,2.21,14.32,9.63-.28,9.63-.28L397,356.62l12.94-.83-.27-12.67,1.37-3.85s5.23-3.31,5-7.44-2.2-4.68-4.13-4.13a20.75,20.75,0,0,0-4.68,2.48s.82-6.88-.28-8.53-4.13-3.86-4.95-8.26S402.5,302.37,402.5,302.37Z" style="fill:#fff;stroke:#263238;stroke-linecap:round;stroke-linejoin:round"></path><path d="M386.53,331.83s3.85,1.11,6.33-1.37" style="fill:none;stroke:#263238;stroke-linecap:round;stroke-linejoin:round"></path><path d="M395.22,320.07c-.64,1.29-1.6,2.13-2.14,1.86s-.47-1.54.17-2.84,1.6-2.12,2.14-1.85S395.86,318.77,395.22,320.07Z" style="fill:#263238"></path><path d="M394.51,313.39s4.13-2.21,4.13,2.47" style="fill:none;stroke:#263238;stroke-linecap:round;stroke-linejoin:round"></path><path d="M411,339.27s-5.78,1.93-6.61-.55" style="fill:none;stroke:#263238;stroke-linecap:round;stroke-linejoin:round"></path><path d="M415.16,361.57s-2.48-8.81-6.61-9.36-3.85-.83-11.56,4.41-20.1,18.17-20.93,26.43a52,52,0,0,0,1.11,18.17c1.1,5.23-6.34,72.14-6.34,72.14h75.72s-5.23-28.91-11.84-42.95-14.32-27.26-15.42-30.56-1.37-23.13-2.2-27.54S415.16,361.57,415.16,361.57Z" style="fill:#38B6FF;stroke:#263238;stroke-linecap:round;stroke-linejoin:round"></path><path d="M409.33,410.47a30.57,30.57,0,0,0,8.51-2.36" style="fill:none;stroke:#263238;stroke-linecap:round;stroke-linejoin:round"></path><path d="M380.14,405.68s11.38,5.15,23.82,5.14" style="fill:none;stroke:#263238;stroke-linecap:round;stroke-linejoin:round"></path><polyline points="393.86 438.78 390.28 408.92 387.85 428.38" style="fill:none;stroke:#263238;stroke-linecap:round;stroke-linejoin:round"></polyline><line x1="395.14" y1="449.46" x2="394.44" y2="443.63" style="fill:none;stroke:#263238;stroke-linecap:round;stroke-linejoin:round"></line><line x1="413.39" y1="410.95" x2="417.44" y2="430.81" style="fill:none;stroke:#263238;stroke-linecap:round;stroke-linejoin:round"></line><path d="M346.91,333.18s-.56-10.76-1.27-11.47-3.83-2.83-4.68-5.1-2.4-3-3-1,.71,4,1.13,4.67a5,5,0,0,1,.85,1.84,2.85,2.85,0,0,1-.28,1l-3.82-2.7s-4.82-3-6.37-4.81-2.84-.57-3,.57,2,3.25,2.83,4.1S334,324.4,334,324.4l-1.56.57-5.81-5.1c-1.27-1.13-3.25-2.55-4-1.84s-.71,1.55.42,2.83,6.94,6.94,6.94,6.94-3-1.42-4.39-2.27-2.69-1.84-2.83-.42,2.27,3.11,3.11,4,3.69,4.53,5.81,6.09,8.92,3.4,8.92,3.4,10.06,32.14,12.6,37.81,3,7.93,5,8.92,24.07,1.56,37.38-1.84,15.86-4,17.28-10.62-2.69-15.44-9.63-15.58-14,5.67-21.66,7.65-15.3,4.25-15.3,4.25S356,353.57,353,348.05A120.84,120.84,0,0,1,346.91,333.18Z" style="fill:#fff;stroke:#263238;stroke-linecap:round;stroke-linejoin:round"></path><path d="M327.51,330.91s3.54,1.84,4,2" style="fill:none;stroke:#263238;stroke-linecap:round;stroke-linejoin:round"></path></g><g id="freepik--character-1--inject-16"><path d="M160.53,323.29s-1.63-15.7-.55-19.77,4.07-6.5,4.88-11.37,2.44-7,4.6-3.52.27,10,.27,10,12.73-10.83,15.17-14.08,6-1.09,5.42,1.35-10.84,13-10.84,13l2.44.54s9.21-9.48,11.92-11.64,5.68-1.63,6.23.81-13.27,15.16-13.27,15.16,9.74-5.41,12.72-7.31,4.07-2.16,4.34.81-2.44,5.69-6.23,7.32-8.13,3.25-8.13,3.25,9.21-1.09,12.19-1.63,1.63,3-1.62,4.61a78,78,0,0,1-10,3.52,63.63,63.63,0,0,1-6.5,8.12c-3.25,3.25-10,6.77-10,6.77s-26.26,59.58-28.7,63.91-19.23,5.42-23.29,5.15-14.9-21.94-14.9-21.94l-4.06-20a52,52,0,0,0,8.94,3.52c5.41,1.63,19.77,8.13,19.77,8.13S147.8,346,154.57,335.75,160.53,323.29,160.53,323.29Z" style="fill:#c9c9c9;stroke:#263238;stroke-linecap:round;stroke-linejoin:round"></path><path d="M169.73,298.65l-.27,5.41s5.15,2.17,3.79,14.36" style="fill:none;stroke:#263238;stroke-linecap:round;stroke-linejoin:round"></path><path d="M77.32,344.18s-13,8.67-19.5,22.21-9.21,21.12-7.58,31.41,7.31,47.4,7.31,55.52-.81,20-.81,20H132.3s1.89-32.22,1.62-54.7-7.85-44.69-12.73-55-8.66-14.35-15.71-17.06S83,341.47,77.32,344.18Z" style="fill:#38B6FF;stroke:#263238;stroke-linecap:round;stroke-linejoin:round"></path><path d="M104.11,419.22s-32.06,34-39.34,38.86" style="fill:none;stroke:#263238;stroke-linecap:round;stroke-linejoin:round"></path><path d="M75.66,459a51,51,0,0,1-7,5.91" style="fill:none;stroke:#263238;stroke-linecap:round;stroke-linejoin:round"></path><path d="M97.79,436.22S87,447.92,78.26,456.46" style="fill:none;stroke:#263238;stroke-linecap:round;stroke-linejoin:round"></path><path d="M99.8,271.87s-10.57-5.14-20.86-1.35S54,285.41,51.59,297.33s.81,25.73,7.58,33.31,17.61,8.94,17.61,8.94L74.61,348s16.26,7.56,19.78,10.54,19.29,13.39,18.46,9.23c-2.43-12.14-.87-18.14.76-23.56s3.79-9.75,8.94-12.46,11.64-7.58,10.56-14.08S128,303.56,128,303.56s2.17-8.13.27-10-10.83-.81-12.45-4.33-2.17-6.78-4.61-9.48S99.8,271.87,99.8,271.87Z" style="fill:#c9c9c9;stroke:#263238;stroke-linecap:round;stroke-linejoin:round"></path><path d="M110.74,288c.81,1.6.86,3.2.13,3.57s-2-.63-2.79-2.24-.86-3.2-.13-3.57S109.94,286.39,110.74,288Z" style="fill:#263238"></path><path d="M102.23,283.79s1.36-4.61,6.5-3" style="fill:none;stroke:#263238;stroke-linecap:round;stroke-linejoin:round"></path><path d="M124.44,306.81s-4.87,1.35-8.66-.81" style="fill:none;stroke:#263238;stroke-linecap:round;stroke-linejoin:round"></path><path d="M94.53,270.07a26.8,26.8,0,0,0-15.59.45C68.65,274.31,54,285.41,51.59,297.33s.81,25.73,7.58,33.31c5.17,5.78,12.68,7.94,16,8.64a15.56,15.56,0,0,0,7.87-7,50.85,50.85,0,0,0,4.06-8.4s-4.88,1.9-8.67,1.35-10.56-1.89-10.29-7.85,6.23-8.39,8.4-6.5,4.33,2.17,6.77-1.08-3.25-8.4-1.63-10.29,4.06-7,2.44-10-9.21-2.44-4.88-8.67C82.49,276.1,90.7,271.86,94.53,270.07Z" style="fill:#263238;stroke:#263238;stroke-linecap:round;stroke-linejoin:round"></path><path d="M87.07,323.87s4.06,4.6,5.41,5.15a22.14,22.14,0,0,0,8.94.54" style="fill:none;stroke:#263238;stroke-linecap:round;stroke-linejoin:round"></path><path d="M187.27,316s1.09-20.59,2.44-21.94,7.31-5.42,8.94-9.75,4.6-5.69,5.68-1.9-1.35,7.59-2.16,8.94-1.63,2.71-1.63,3.52a5.41,5.41,0,0,0,.54,1.9l7.32-5.15s9.2-5.68,12.18-9.21,5.42-1.08,5.69,1.09-3.79,6.23-5.42,7.85-8.93,7.86-8.93,7.86l3,1.08s8.66-7.58,11.1-9.75,6.23-4.88,7.58-3.52,1.36,3-.81,5.42-13.27,13.27-13.27,13.27,5.69-2.71,8.4-4.34,5.14-3.52,5.41-.81-4.33,6-6,7.58-7,8.67-11.1,11.65-17.06,6.5-17.06,6.5-19.23,61.47-24.1,72.31-5.69,15.16-9.48,17.06-46,3-71.5-3.52-30.33-7.59-33-20.31,5.15-29.52,18.42-29.79,26.81,10.83,41.43,14.62,29.25,8.12,29.25,8.12,19.77-29.79,25.46-40.35S187.27,316,187.27,316Z" style="fill:#c9c9c9;stroke:#263238;stroke-linecap:round;stroke-linejoin:round"></path><path d="M224.37,311.68s-6.77,3.52-7.58,3.79" style="fill:none;stroke:#263238;stroke-linecap:round;stroke-linejoin:round"></path></g><g id="freepik--Line--inject-16"><line x1="35.55" y1="473.36" x2="476.22" y2="473.36" style="fill:none;stroke:#263238;stroke-linecap:round;stroke-linejoin:round"></line></g></svg>